<svg width="108" height="27" viewBox="0 0 108 27" fill="none" xmlns="http://www.w3.org/2000/svg">
<path d="M22.3594 0.453125V7.75781H18.5703V6.82031C18.5703 6.19531 18.5052 5.71354 18.375 5.375C18.2448 5.03646 18.069 4.78906 17.8477 4.63281C17.6263 4.46354 17.3659 4.36589 17.0664 4.33984C16.7799 4.30078 16.474 4.28125 16.1484 4.28125H9.52734V11.3906H12.9648C13.2904 11.3906 13.5638 11.3841 13.7852 11.3711C14.0195 11.3451 14.2148 11.2865 14.3711 11.1953C14.5273 11.0911 14.651 10.9284 14.7422 10.707C14.8333 10.4857 14.8984 10.1732 14.9375 9.76953H16.4023V16.2344H14.9375C14.8984 15.8698 14.8333 15.5833 14.7422 15.375C14.651 15.1667 14.5339 15.0104 14.3906 14.9062C14.2474 14.7891 14.0586 14.7174 13.8242 14.6914C13.6029 14.6523 13.3359 14.6328 13.0234 14.6328H9.52734V20.9023C9.52734 21.2539 9.5599 21.5404 9.625 21.7617C9.6901 21.9701 9.80078 22.1328 9.95703 22.25C10.1133 22.3542 10.3151 22.4258 10.5625 22.4648C10.8229 22.5039 11.1419 22.5234 11.5195 22.5234H12.7109V26C12.151 26 11.6107 26 11.0898 26C10.569 26 10.0286 26 9.46875 26C8.92188 25.987 8.34245 25.9805 7.73047 25.9805C7.11849 25.9674 6.44792 25.9609 5.71875 25.9609C5.08073 25.9609 4.50781 25.9674 4 25.9805C3.50521 25.9805 3.03646 25.9805 2.59375 25.9805C2.16406 25.9805 1.74089 25.987 1.32422 26C0.920573 26 0.490885 26 0.0351562 26V22.5234H1.34375C1.69531 22.5234 1.98828 22.5039 2.22266 22.4648C2.45703 22.4128 2.63932 22.3086 2.76953 22.1523C2.91276 21.9961 3.01042 21.7682 3.0625 21.4688C3.11458 21.1693 3.14062 20.7656 3.14062 20.2578V6.15625C3.14062 5.72656 3.1276 5.36849 3.10156 5.08203C3.07552 4.79557 3.00391 4.56771 2.88672 4.39844C2.76953 4.21615 2.58724 4.09245 2.33984 4.02734C2.10547 3.94922 1.77344 3.91016 1.34375 3.91016H0.0742188V0.453125H22.3594ZM46.3633 0.453125V7.5625H42.5547V6.76172C42.5547 6.13672 42.4896 5.65495 42.3594 5.31641C42.2292 4.97786 42.0469 4.73698 41.8125 4.59375C41.5781 4.4375 41.2917 4.34635 40.9531 4.32031C40.6146 4.29427 40.237 4.28125 39.8203 4.28125H33.2773V11.3711H37.125C37.4115 11.3711 37.6523 11.3581 37.8477 11.332C38.056 11.293 38.2318 11.2148 38.375 11.0977C38.5182 10.9805 38.6354 10.7982 38.7266 10.5508C38.8307 10.3034 38.9154 9.96484 38.9805 9.53516H40.6406V16.4492H38.9609C38.8828 16.0326 38.7982 15.7005 38.707 15.4531C38.6159 15.2057 38.4987 15.0234 38.3555 14.9062C38.2122 14.776 38.043 14.6979 37.8477 14.6719C37.6523 14.6328 37.4115 14.6133 37.125 14.6133H33.2773V22.2109H40.0938C40.5755 22.2109 40.9792 22.1784 41.3047 22.1133C41.6302 22.0482 41.8906 21.9049 42.0859 21.6836C42.2943 21.4622 42.444 21.1497 42.5352 20.7461C42.6263 20.3294 42.6719 19.776 42.6719 19.0859V18.4609H46.4414V26H24.0391V22.5234H25.4844C25.8229 22.5234 26.0833 22.4648 26.2656 22.3477C26.4609 22.2305 26.6042 22.0677 26.6953 21.8594C26.7995 21.651 26.8581 21.4167 26.8711 21.1562C26.8971 20.8958 26.9102 20.6159 26.9102 20.3164V6.25391C26.9102 5.96745 26.9036 5.68099 26.8906 5.39453C26.8776 5.10807 26.8255 4.85417 26.7344 4.63281C26.6432 4.41146 26.5 4.23568 26.3047 4.10547C26.1224 3.96224 25.849 3.89062 25.4844 3.89062H24.1172V0.453125H46.3633ZM54.6445 0.453125C54.7227 0.453125 54.8789 0.453125 55.1133 0.453125C55.3477 0.453125 55.6211 0.453125 55.9336 0.453125C56.2591 0.453125 56.5977 0.453125 56.9492 0.453125C57.3138 0.453125 57.6523 0.453125 57.9648 0.453125C58.2904 0.453125 58.5703 0.453125 58.8047 0.453125C59.0521 0.453125 59.2148 0.453125 59.293 0.453125L70.4453 19.2617H70.4844L70.4648 5.57031C70.4648 5.20573 70.4388 4.91927 70.3867 4.71094C70.3346 4.48958 70.237 4.32031 70.0938 4.20312C69.9505 4.08594 69.7487 4.01432 69.4883 3.98828C69.2409 3.94922 68.9154 3.92969 68.5117 3.92969H67.6133V0.453125C68.5898 0.453125 69.4622 0.459635 70.2305 0.472656C71.0117 0.485677 71.7214 0.492188 72.3594 0.492188C72.4505 0.492188 72.5938 0.492188 72.7891 0.492188C72.9974 0.492188 73.2318 0.492188 73.4922 0.492188C73.7526 0.492188 74.0326 0.492188 74.332 0.492188C74.6315 0.479167 74.931 0.472656 75.2305 0.472656C75.9336 0.472656 76.7018 0.466146 77.5352 0.453125V3.92969H76.5391C76.0964 3.92969 75.7578 3.98177 75.5234 4.08594C75.2891 4.17708 75.1133 4.3138 74.9961 4.49609C74.8919 4.66536 74.8268 4.88021 74.8008 5.14062C74.7878 5.38802 74.7812 5.66146 74.7812 5.96094C74.7812 5.98698 74.7812 6.29948 74.7812 6.89844C74.7812 7.4974 74.7812 8.27865 74.7812 9.24219C74.7812 10.1927 74.7812 11.2734 74.7812 12.4844C74.7812 13.6953 74.7812 14.9323 74.7812 16.1953V26.2734H68.3555L56.6172 6.70312H56.5781L56.5977 20.8047C56.5977 21.2083 56.6172 21.5273 56.6562 21.7617C56.7083 21.9831 56.806 22.1523 56.9492 22.2695C57.1055 22.3867 57.3138 22.4583 57.5742 22.4844C57.8346 22.5104 58.1797 22.5234 58.6094 22.5234H59.5664V26C58.8242 26 58.069 25.9935 57.3008 25.9805C56.5456 25.9674 55.6667 25.9609 54.6641 25.9609C54.1042 25.9609 53.5964 25.9674 53.1406 25.9805C52.6849 25.9805 52.2487 25.9805 51.832 25.9805C51.4284 25.9805 51.0312 25.987 50.6406 26C50.25 26 49.8464 26 49.4297 26V22.5234H50.4453C50.9271 22.5234 51.2917 22.4779 51.5391 22.3867C51.7995 22.2956 51.9883 22.1589 52.1055 21.9766C52.2227 21.7943 52.2878 21.5664 52.3008 21.293C52.3138 21.0065 52.3203 20.6745 52.3203 20.2969V5.90234C52.3203 5.51172 52.3073 5.19271 52.2812 4.94531C52.2552 4.6849 52.1771 4.48307 52.0469 4.33984C51.9297 4.18359 51.7474 4.07943 51.5 4.02734C51.2526 3.96224 50.9141 3.92969 50.4844 3.92969H49.4688V0.453125H54.6445ZM90.7773 0.453125C96.3242 0.453125 100.458 1.50781 103.18 3.61719C105.901 5.71354 107.262 8.87109 107.262 13.0898C107.262 15.5247 106.878 17.569 106.109 19.2227C105.354 20.8633 104.273 22.1914 102.867 23.207C101.474 24.2096 99.7878 24.9258 97.8086 25.3555C95.8424 25.7852 93.6419 26 91.207 26H79.8398V22.5234H80.7969C81.2005 22.5234 81.5195 22.4714 81.7539 22.3672C81.9883 22.25 82.1641 22.1003 82.2812 21.918C82.3984 21.7227 82.4701 21.4948 82.4961 21.2344C82.5352 20.974 82.5547 20.6875 82.5547 20.375C82.5547 20.3359 82.5547 20.1016 82.5547 19.6719C82.5547 19.2292 82.5482 18.6628 82.5352 17.9727C82.5352 17.2826 82.5352 16.5013 82.5352 15.6289C82.5352 14.7565 82.5352 13.8711 82.5352 12.9727V5.78516C82.5352 5.51172 82.5091 5.26432 82.457 5.04297C82.418 4.82161 82.3333 4.6263 82.2031 4.45703C82.0859 4.28776 81.9102 4.15755 81.6758 4.06641C81.4544 3.96224 81.1615 3.91016 80.7969 3.91016H79.8398V0.453125H90.7773ZM88.9414 22.2109H91.7539C93.1862 22.2109 94.4362 22.0352 95.5039 21.6836C96.5846 21.332 97.4766 20.7852 98.1797 20.043C98.8958 19.2878 99.4297 18.3307 99.7812 17.1719C100.146 16.013 100.328 14.6263 100.328 13.0117C100.328 9.96484 99.6185 7.74479 98.1992 6.35156C96.793 4.94531 94.638 4.24219 91.7344 4.24219H88.9414V22.2109Z" fill="black" fill-opacity="0.9"/>
</svg>
